<?xml version="1.0" encoding="UTF-8" standalone="no"?>
<!-- Created with Inkscape (http://www.inkscape.org/) -->

<svg
   width="210mm"
   height="296.99997mm"
   viewBox="0 0 210 296.99996"
   version="1.1"
   id="svg5"
   inkscape:export-filename="anim2.svg"
   inkscape:export-xdpi="8.5521889"
   inkscape:export-ydpi="8.5521889"
   sodipodi:docname="anim2.svg"
   inkscape:version="1.2.2 (732a01da63, 2022-12-09)"
   xmlns:inkscape="http://www.inkscape.org/namespaces/inkscape"
   xmlns:sodipodi="http://sodipodi.sourceforge.net/DTD/sodipodi-0.dtd"
   xmlns="http://www.w3.org/2000/svg"
   xmlns:svg="http://www.w3.org/2000/svg">
  <sodipodi:namedview
     id="namedview7"
     pagecolor="#505050"
     bordercolor="#eeeeee"
     borderopacity="1"
     inkscape:showpageshadow="0"
     inkscape:pageopacity="0"
     inkscape:pagecheckerboard="0"
     inkscape:deskcolor="#505050"
     inkscape:document-units="mm"
     showgrid="false"
     inkscape:zoom="2.0510461"
     inkscape:cx="548.98814"
     inkscape:cy="78.740305"
     inkscape:window-width="1920"
     inkscape:window-height="1001"
     inkscape:window-x="-9"
     inkscape:window-y="-9"
     inkscape:window-maximized="1"
     inkscape:current-layer="layer1" />
  <defs
     id="defs2" />
  <g
     inkscape:label="Réteg 1"
     inkscape:groupmode="layer"
     id="layer1"
     transform="translate(0,-153.75609)">
    <path
       style="fill:none;stroke:#000000;stroke-width:0.159524px;stroke-linecap:butt;stroke-linejoin:miter;stroke-opacity:1"
       d="m -0.29278376,171.44699 c 2.69810626,-2.89828 8.34825646,-5.46165 13.55679476,-7.81319 7.845216,-2.40106 16.751922,-4.40592 26.127398,-5.74006 11.862423,-1.54511 48.498347,1.73594 55.441045,4.41069 6.575216,2.37779 29.561356,12.65914 39.612146,11.95318 10.3267,-1.19295 15.80104,-12.01562 17.23948,-16.06437 0.3942,-2.48771 -2.23578,-5.42516 -8.81507,-2.46784 -5.84542,2.62746 -12.77619,7.80307 -4.56005,10.50097 10.43437,2.27255 21.71424,-0.65512 31.52905,-2.09812 11.2133,-1.61056 3.5099,-3.11815 11.8108,-6.55738 3.05659,-1.35717 4.41235,-5.42621 -1.35611,-2.43258 -7.44276,3.61589 -16.9804,6.98094 -20.07088,11.60575 -1.91709,4.47468 10.26509,7.14068 19.43424,8.37277 14.54293,1.44793 16.44034,1.50308 18.89343,1.56213"
       id="path130"
       sodipodi:nodetypes="ccccccsccccccc" />
  </g>
</svg>
