<?xml version="1.0" encoding="UTF-8" standalone="no"?>
<!-- Created with Inkscape (http://www.inkscape.org/) -->

<svg
   width="210mm"
   height="297mm"
   viewBox="0 0 210 297.00001"
   version="1.1"
   id="svg709"
   inkscape:version="1.2.2 (732a01da63, 2022-12-09)"
   sodipodi:docname="anim4.svg"
   inkscape:export-filename="Documents\GitHub\IV.-Csapat-II\img\anim4.svg"
   inkscape:export-xdpi="96"
   inkscape:export-ydpi="96"
   xmlns:inkscape="http://www.inkscape.org/namespaces/inkscape"
   xmlns:sodipodi="http://sodipodi.sourceforge.net/DTD/sodipodi-0.dtd"
   xmlns="http://www.w3.org/2000/svg"
   xmlns:svg="http://www.w3.org/2000/svg">
  <sodipodi:namedview
     id="namedview711"
     pagecolor="#505050"
     bordercolor="#eeeeee"
     borderopacity="1"
     inkscape:showpageshadow="0"
     inkscape:pageopacity="0"
     inkscape:pagecheckerboard="0"
     inkscape:deskcolor="#505050"
     inkscape:document-units="mm"
     showgrid="false"
     inkscape:zoom="1.4503086"
     inkscape:cx="319.9319"
     inkscape:cy="206.85252"
     inkscape:window-width="1920"
     inkscape:window-height="1001"
     inkscape:window-x="-9"
     inkscape:window-y="-9"
     inkscape:window-maximized="1"
     inkscape:current-layer="layer1" />
  <defs
     id="defs706" />
  <g
     inkscape:label="Réteg 1"
     inkscape:groupmode="layer"
     id="layer1"
     transform="translate(-1.818954,-82.559494)">
    <path
       style="fill:none;stroke:#000000;stroke-width:0.264583px;stroke-linecap:butt;stroke-linejoin:miter;stroke-opacity:1"
       d="m 71.513513,82.459459 c 4.02807,1.11088 6.293946,5.019055 9.537541,7.373609 3.174539,2.680787 4.751032,6.736227 6.149554,10.528262 1.216764,3.21115 -0.387568,7.26004 -2.017101,10.64119 -2.029168,4.36594 -4.122271,8.83016 -7.770947,12.11429 -2.657453,2.93907 -4.553081,5.82966 -7.161002,8.54491 -5.301143,4.82252 -12.065216,7.75571 -18.834911,9.86782 -4.623566,1.20789 -9.65781,1.19842 -14.178605,2.24665 -5.476434,0.71792 -8.930103,1.80364 -13.410322,2.26737 -6.753946,0.91299 -13.51043,-0.20948 -20.260626,0.23358 -0.8239922,0.0209 -1.6482262,0.0337 -2.4724992,0.0337"
       id="path717"
       sodipodi:nodetypes="ccccccccccc" />
  </g>
</svg>
