<?xml version="1.0" encoding="UTF-8" standalone="no"?>
<!-- Created with Inkscape (http://www.inkscape.org/) -->

<svg
   width="210.00002mm"
   height="297mm"
   viewBox="0 0 210.00002 297"
   version="1.1"
   id="svg310"
   inkscape:version="1.2.2 (732a01da63, 2022-12-09)"
   sodipodi:docname="anim3.svg"
   inkscape:export-filename="Documents\GitHub\IV.-Csapat-II\img\anim3.svg"
   inkscape:export-xdpi="96"
   inkscape:export-ydpi="96"
   xmlns:inkscape="http://www.inkscape.org/namespaces/inkscape"
   xmlns:sodipodi="http://sodipodi.sourceforge.net/DTD/sodipodi-0.dtd"
   xmlns="http://www.w3.org/2000/svg"
   xmlns:svg="http://www.w3.org/2000/svg">
  <sodipodi:namedview
     id="namedview312"
     pagecolor="#505050"
     bordercolor="#eeeeee"
     borderopacity="1"
     inkscape:showpageshadow="0"
     inkscape:pageopacity="0"
     inkscape:pagecheckerboard="0"
     inkscape:deskcolor="#505050"
     inkscape:document-units="mm"
     showgrid="false"
     inkscape:zoom="1.4503086"
     inkscape:cx="350.95978"
     inkscape:cy="-158.58693"
     inkscape:window-width="1920"
     inkscape:window-height="1001"
     inkscape:window-x="-9"
     inkscape:window-y="-9"
     inkscape:window-maximized="1"
     inkscape:current-layer="layer1" />
  <defs
     id="defs307" />
  <g
     inkscape:label="Réteg 1"
     inkscape:groupmode="layer"
     id="layer1"
     transform="translate(-13.135135,-170.93919)">
    <path
       style="fill:none;stroke:#000000;stroke-width:0.203832px;stroke-linecap:butt;stroke-linejoin:miter;stroke-opacity:1"
       d="m 12.873299,184.73734 c -1.100921,-5.82867 6.210961,-11.12217 14.952534,-13.21217 9.699561,-1.99757 3.268246,8.00678 5.86683,11.75429 2.909364,3.45946 7.837858,8.12149 10.367653,2.73567 2.071972,-4.07141 3.896552,-7.5737 8.349499,-10.60333 2.101274,-1.33786 6.284241,4.2153 7.124776,5.84769 3.804373,6.06726 6.525216,3.72732 13.550245,3.12184 10.742278,-1.18754 18.764464,0.64461 23.530256,-4.9713 1.767918,-2.38968 8.209208,-8.00066 1.11322,-7.88165 -8.667599,0.0848 -8.783768,4.64451 -8.151161,8.02531 0.882944,4.41177 3.220236,1.56691 9.526048,3.543 10.975461,2.5898 19.345991,3.92895 30.061701,4.10887 9.23769,-0.27186 19.42689,1.3521 27.7117,-1.8559 3.63296,-1.65066 7.96637,-2.38347 13.41966,-3.67392 7.96034,-1.19627 13.38624,-1.94612 20.38652,-2.83402 5.79655,-0.74821 9.44711,-2.07482 12.26763,1.26692 l 0.89501,0.34247"
       id="path377"
       sodipodi:nodetypes="ccccccccccccccccc" />
  </g>
</svg>
