<?xml version="1.0" encoding="UTF-8"?>
<svg xmlns="http://www.w3.org/2000/svg" width="66" height="66" viewBox="0 0 66 66" fill="none">
  <path d="M44.8664 27.0341C45.3617 32.0998 48.6856 36.7217 53.8696 38.5652C46.2605 41.2713 42.6598 49.9642 46.1269 57.2574C38.8323 53.7903 30.1409 57.391 27.4348 65C24.7287 57.391 16.0372 53.7903 8.74261 57.2574C12.2097 49.9642 8.60904 41.2713 1 38.5652C8.60904 35.8605 12.2097 27.1677 8.74261 19.873C16.0372 23.3402 24.7287 19.7409 27.4348 12.1304C29.2783 17.3158 33.9016 20.6397 38.9687 21.135" stroke="black" stroke-width="2" stroke-miterlimit="2" stroke-linecap="round" stroke-linejoin="round"></path>
  <path d="M35.5001 36.4059C35.6838 37.0946 35.7826 37.8181 35.7826 38.5652C35.7826 43.176 32.0455 46.913 27.4347 46.913C22.824 46.913 19.0869 43.176 19.0869 38.5652C19.0869 33.9558 22.824 30.2174 27.4347 30.2174C28.1805 30.2174 28.9039 30.3162 29.5926 30.4998" stroke="black" stroke-width="2" stroke-miterlimit="2" stroke-linecap="round" stroke-linejoin="round"></path>
  <path d="M27.4348 38.5652L47.1148 18.8852" stroke="black" stroke-width="2" stroke-miterlimit="2" stroke-linecap="round" stroke-linejoin="round"></path>
  <path d="M60.0469 15.7757L64.9999 10.8226" stroke="black" stroke-width="2" stroke-miterlimit="2" stroke-linecap="round" stroke-linejoin="round"></path>
  <path d="M55.1788 1L44.6605 11.5183L44.6689 11.5266C43.3917 12.9777 44.4588 16.2278 47.1148 18.8852C49.7722 21.5426 53.0236 22.6083 54.4734 21.3325L54.4817 21.3409L55.7771 20.0456" stroke="black" stroke-width="2" stroke-miterlimit="2" stroke-linecap="round" stroke-linejoin="round"></path>
  <path d="M50.2258 5.95444L50.2327 5.9614C48.9569 7.41253 50.024 10.6626 52.68 13.32C55.3374 15.9774 58.5875 17.0431 60.0386 15.7673" stroke="black" stroke-width="2" stroke-miterlimit="2" stroke-linecap="round" stroke-linejoin="round"></path>
</svg>
