<?xml version="1.0" encoding="UTF-8"?>
<svg xmlns="http://www.w3.org/2000/svg" width="48" height="48" viewBox="0 0 48 48" fill="none">
  <g clip-path="url(#clip0_313_2731)">
    <path d="M36.5949 12.3206V11.4057H35.68C35.1771 11.4057 34.7657 10.9943 34.7657 10.4909C34.7657 9.98743 35.1771 9.576 35.68 9.576H36.5949V8.66114C36.5949 8.15771 37.0069 7.74629 37.5097 7.74629C38.0137 7.74629 38.4246 8.15771 38.4246 8.66114V9.576H39.3394C39.8434 9.576 40.2543 9.98743 40.2543 10.4909C40.2543 10.9943 39.8434 11.4057 39.3394 11.4057H38.4246V12.3206C38.4246 12.824 38.0137 13.2354 37.5097 13.2354C37.0069 13.2354 36.5949 12.824 36.5949 12.3206ZM34.7657 34.2771C34.7657 33.7743 35.1771 33.3629 35.68 33.3629H39.3394C39.8434 33.3629 40.2543 33.7743 40.2543 34.2771C40.2543 34.7806 39.8434 35.1926 39.3394 35.1926H35.68C35.1771 35.1926 34.7657 34.7806 34.7657 34.2771ZM25.4657 9.79143L20.4389 14.1874C20.2417 14.3606 20.1274 14.6074 20.1274 14.8731V18.7246C20.1274 20.2389 21.3583 21.4697 22.872 21.4697H23.6314V23.3069C22.2217 23.3469 21.4463 23.9269 20.8246 24.4011C20.2709 24.8229 19.8703 25.1291 18.9783 25.1291C18.0863 25.1291 17.6863 24.8234 17.132 24.4011C16.8909 24.2171 16.6269 24.016 16.3126 23.8366V21.4697H17.2274C17.7354 21.4697 18.1423 21.0577 18.1423 20.5549C18.1423 20.0514 17.7354 19.64 17.2274 19.64H16.3126V17.0366C16.3126 16.7949 16.2206 16.5657 16.0474 16.392C15.8731 16.2183 15.6446 16.1217 15.4023 16.1217H11.7383C11.5006 16.1217 11.2623 16.2229 11.0931 16.392C10.9234 16.5611 10.8274 16.7989 10.8274 17.0366V19.64H10.064C9.56057 19.64 9.14914 19.228 9.14914 18.7246V15.2891L14.172 10.8931C14.3726 10.72 14.4829 10.468 14.4829 10.2074V5.91657H25.4657V9.79143ZM5.53829 46.1709L4.39486 44.3411H43.1783L42.0343 46.1709H5.53829ZM12.6531 30.4766V17.9514H14.4869V30.4766H12.6531ZM35.2354 25.8566C35.88 26.3474 36.6829 26.9589 38.1931 26.9589C39.7029 26.9589 40.5057 26.3474 41.1503 25.8566C41.4714 25.612 41.7406 25.4069 42.084 25.2771V38.8514H5.48914V25.2777C5.83086 25.4074 6.1 25.612 6.42114 25.8566C7.06457 26.3469 7.86686 26.9589 9.376 26.9589C9.95372 26.9589 10.4263 26.8674 10.8274 26.7297V31.3909C10.8274 31.6291 10.9234 31.8674 11.0931 32.036C11.2623 32.2051 11.5006 32.3063 11.7383 32.3063H15.4023C15.6446 32.3063 15.8731 32.2097 16.0474 32.036C16.2206 31.8623 16.3126 31.6337 16.3126 31.3909V26.072C16.9126 26.5097 17.6851 26.9589 18.9783 26.9589C20.488 26.9589 21.2897 26.3469 21.9337 25.8566C22.4549 25.4594 22.8457 25.1691 23.6314 25.1354V31.3909C23.6314 31.6291 23.732 31.8674 23.9011 32.036C24.0709 32.2051 24.3086 32.3063 24.5463 32.3063H28.2097C28.4526 32.3063 28.6811 32.2097 28.8554 32.036C29.0291 31.8623 29.1206 31.6337 29.1206 31.3909V26.9309C30.2931 26.8069 30.9766 26.2857 31.5394 25.8566C32.0943 25.4343 32.4949 25.1291 33.3874 25.1291C34.28 25.1291 34.6806 25.4343 35.2354 25.8566ZM25.4611 30.4766V17.9514H27.2954V30.4766H25.4611ZM1.82971 2.25714H12.6531V4.08686H1.82971V2.25714ZM25.4657 4.08686H14.4829V2.25714H25.4657V4.08686ZM47.5731 5.00172V1.34229C47.5731 0.836572 47.1634 0.427429 46.6577 0.427429H39.3394C38.8337 0.427429 38.424 0.836572 38.424 1.34229C38.424 1.84743 38.8337 2.25714 39.3394 2.25714H45.7434V4.08686H27.2909V2.25714H35.68C36.1851 2.25714 36.5943 1.84743 36.5943 1.34229C36.5943 0.836572 36.1851 0.427429 35.68 0.427429H0.914857C0.409143 0.427429 0 0.836572 0 1.34229V5.00172C0 5.50686 0.409143 5.91657 0.914857 5.91657H12.6531V9.79143L7.63086 14.1874C7.43371 14.3606 7.31943 14.6126 7.31943 14.8731V18.7246C7.31943 20.2389 8.54971 21.4697 10.064 21.4697H10.8274V24.6914C10.4389 24.9566 10.0463 25.1291 9.376 25.1291C8.48457 25.1291 8.084 24.8229 7.52914 24.4011C7.03086 24.0206 6.43257 23.5714 5.48914 23.3874V20.5543C5.48914 20.0491 5.07943 19.6394 4.57429 19.6394H0.914857C0.409143 19.6394 0 20.0491 0 20.5543V43.4263C0 43.9314 0.409143 44.3411 0.914857 44.3411H2.23714L4.25543 47.5703C4.42286 47.8377 4.716 48 5.03143 48H42.5411C42.8566 48 43.1497 47.8377 43.3171 47.5703L45.3354 44.3411H46.6577C47.1634 44.3411 47.5731 43.9314 47.5731 43.4263V37.0217C47.5731 36.5166 47.1634 36.1069 46.6577 36.1069C46.1531 36.1069 45.7434 36.5166 45.7434 37.0217V42.5109H1.82971V21.4691H3.65943V39.7669C3.65943 40.272 4.06914 40.6811 4.57429 40.6811H42.9989C43.504 40.6811 43.9137 40.272 43.9137 39.7669V21.4691H45.7434V33.3623C45.7434 33.8674 46.1531 34.2771 46.6577 34.2771C47.1634 34.2771 47.5731 33.8674 47.5731 33.3623V20.5543C47.5731 20.0491 47.1634 19.6394 46.6577 19.6394H42.9989C42.4931 19.6394 42.084 20.0491 42.084 20.5543V23.3869C41.1394 23.5714 40.5406 24.0206 40.0411 24.4011C39.4869 24.8229 39.0857 25.1291 38.1931 25.1291C37.2994 25.1291 36.8989 24.8229 36.3446 24.4011C35.7 23.9097 34.8971 23.2989 33.3874 23.2989C31.8777 23.2989 31.0754 23.9097 30.4309 24.4011C30.0029 24.7274 29.6634 24.9823 29.1206 25.0817V21.4697H30.0354C30.5429 21.4697 30.9503 21.0577 30.9503 20.5549C30.9503 20.0514 30.5429 19.64 30.0354 19.64H29.1206V17.0366C29.1206 16.7949 29.0291 16.5657 28.8554 16.392C28.6811 16.2183 28.4526 16.1217 28.2097 16.1217H24.5463C24.3086 16.1217 24.0709 16.2229 23.9011 16.392C23.732 16.5611 23.6314 16.7989 23.6314 17.0366V19.64H22.872C22.3691 19.64 21.9571 19.228 21.9571 18.7246V15.2891L26.98 10.8931C27.1806 10.72 27.2909 10.468 27.2909 10.2074V5.91657H46.6577C47.1634 5.91657 47.5731 5.50686 47.5731 5.00172Z" fill="black"></path>
  </g>
  <defs>
    <clipPath id="clip0_313_2731">
      <rect width="48" height="48" fill="white"></rect>
    </clipPath>
  </defs>
</svg>
