<?xml version="1.0" encoding="UTF-8" standalone="no"?>
<!-- Created with Inkscape (http://www.inkscape.org/) -->

<svg
   width="183.47714mm"
   height="21.488565mm"
   viewBox="0 0 183.47714 21.488565"
   version="1.1"
   id="svg5"
   inkscape:export-filename="item.svg"
   inkscape:export-xdpi="96"
   inkscape:export-ydpi="96"
   inkscape:version="1.2.2 (732a01da63, 2022-12-09)"
   sodipodi:docname="item.svg"
   xmlns:inkscape="http://www.inkscape.org/namespaces/inkscape"
   xmlns:sodipodi="http://sodipodi.sourceforge.net/DTD/sodipodi-0.dtd"
   xmlns="http://www.w3.org/2000/svg"
   xmlns:svg="http://www.w3.org/2000/svg">
  <sodipodi:namedview
     id="namedview7"
     pagecolor="#ffffff"
     bordercolor="#000000"
     borderopacity="0.25"
     inkscape:showpageshadow="2"
     inkscape:pageopacity="0.0"
     inkscape:pagecheckerboard="0"
     inkscape:deskcolor="#d1d1d1"
     inkscape:document-units="mm"
     showgrid="false"
     inkscape:zoom="1.4912879"
     inkscape:cx="418.095"
     inkscape:cy="-97.231395"
     inkscape:window-width="1920"
     inkscape:window-height="1017"
     inkscape:window-x="-8"
     inkscape:window-y="-8"
     inkscape:window-maximized="1"
     inkscape:current-layer="layer1" />
  <defs
     id="defs2" />
  <g
     inkscape:label="Réteg 1"
     inkscape:groupmode="layer"
     id="layer1"
     transform="translate(-10.036354,-124.96612)">
    <path
       style="fill:none;stroke:#000000;stroke-width:0.196023"
       d="m 9.2000947,144.97857 c 2.9819273,-3.88871 9.3157063,-6.40623 15.9848163,-8.25231 5.397724,-1.74359 12.060618,-2.47036 18.22152,-1.86291 6.494454,1.15646 11.239055,4.28843 18.209622,4.81416 10.015113,1.20485 20.393962,0.79923 30.561802,0.77068 16.200245,-0.7046 32.309055,-3.28486 46.219345,-7.93137 6.94543,-2.64423 1.54962,-7.32224 -5.82764,-6.83844 -9.62793,-0.33989 -18.11052,2.69586 -27.1587,4.01581 -11.282122,2.21566 -22.982434,3.62459 -34.78657,4.68203 -11.86682,1.25524 -23.833523,2.63245 -35.868727,3.00847 9.080156,-2.38627 19.674058,-2.39376 29.613655,-2.70123 12.371101,-0.19745 25.237725,-0.23093 36.681762,2.73724 5.73523,1.30042 11.11376,2.99218 16.04998,5.02658 9.69864,3.3808 21.4509,3.17623 32.47924,3.15091 9.2091,0.0573 17.95499,-1.90636 27.14415,-2.11362 5.98817,-0.5015 12.22651,-0.17523 18.10784,-0.84257"
       id="path1525" />
  </g>
</svg>
