<?xml version="1.0" encoding="UTF-8"?>
<svg xmlns="http://www.w3.org/2000/svg" width="66" height="66" viewBox="0 0 66 66" fill="none">
  <path d="M21.8694 65V52.4783" stroke="black" stroke-width="2" stroke-miterlimit="2" stroke-linecap="round" stroke-linejoin="round"></path>
  <path d="M21.8694 35.784V23.2609" stroke="black" stroke-width="2" stroke-miterlimit="2" stroke-linecap="round" stroke-linejoin="round"></path>
  <path d="M28.2557 59.56L25.0696 51.8522" stroke="black" stroke-width="2" stroke-miterlimit="2" stroke-linecap="round" stroke-linejoin="round"></path>
  <path d="M18.6695 36.4087L15.4834 28.7009" stroke="black" stroke-width="2" stroke-miterlimit="2" stroke-linecap="round" stroke-linejoin="round"></path>
  <path d="M57.6385 14.2689C62.1004 17.5663 64.9999 22.863 64.9999 28.8261C64.9999 38.5791 57.2365 46.5652 47.553 46.8991" stroke="black" stroke-width="2" stroke-miterlimit="2" stroke-linecap="round" stroke-linejoin="round"></path>
  <path d="M53.8723 12.1318C55.2163 12.6939 56.4796 13.4146 57.6386 14.2688" stroke="black" stroke-width="2" stroke-miterlimit="2" stroke-linecap="round" stroke-linejoin="round"></path>
  <path d="M13.8276 1C15.1076 6.56522 20.1024 10.7391 26.0433 10.7391H46.9129C47.692 10.7391 48.4586 10.7892 49.2127 10.8852" stroke="black" stroke-width="2" stroke-miterlimit="2" stroke-linecap="round" stroke-linejoin="round"></path>
  <path d="M53.6399 18.2716C57.121 20.4977 59.4347 24.3989 59.4347 28.8261C59.4347 35.5182 54.1617 41 47.5391 41.3339" stroke="black" stroke-width="2" stroke-miterlimit="2" stroke-linecap="round" stroke-linejoin="round"></path>
  <path d="M49.4382 16.5617C50.9561 16.8734 52.3753 17.4619 53.64 18.2717" stroke="black" stroke-width="2" stroke-miterlimit="2" stroke-linecap="round" stroke-linejoin="round"></path>
  <path d="M8.16504 1C9.5146 9.65391 17.0137 16.3044 26.0433 16.3044H43.7936" stroke="black" stroke-width="2" stroke-miterlimit="2" stroke-linecap="round" stroke-linejoin="round"></path>
  <path d="M37.2991 50.5165L29.5913 47.3304" stroke="black" stroke-width="2" stroke-miterlimit="2" stroke-linecap="round" stroke-linejoin="round"></path>
  <path d="M64.1108 1.88904L27.7686 38.2313" stroke="black" stroke-width="2" stroke-miterlimit="2" stroke-linecap="round" stroke-linejoin="round"></path>
  <path d="M14.1478 40.9304L6.43994 37.7444" stroke="black" stroke-width="2" stroke-miterlimit="2" stroke-linecap="round" stroke-linejoin="round"></path>
  <path d="M37.2991 37.7444L29.5913 40.9304" stroke="black" stroke-width="2" stroke-miterlimit="2" stroke-linecap="round" stroke-linejoin="round"></path>
  <path d="M14.1478 47.3304L6.43994 50.5165" stroke="black" stroke-width="2" stroke-miterlimit="2" stroke-linecap="round" stroke-linejoin="round"></path>
  <path d="M28.2557 28.7009L25.0696 36.4087" stroke="black" stroke-width="2" stroke-miterlimit="2" stroke-linecap="round" stroke-linejoin="round"></path>
  <path d="M18.6695 51.8522L15.4834 59.56" stroke="black" stroke-width="2" stroke-miterlimit="2" stroke-linecap="round" stroke-linejoin="round"></path>
  <path d="M36.6258 58.888L27.7673 50.0295" stroke="black" stroke-width="2" stroke-miterlimit="2" stroke-linecap="round" stroke-linejoin="round"></path>
  <path d="M15.9717 38.2327L7.11328 29.3743" stroke="black" stroke-width="2" stroke-miterlimit="2" stroke-linecap="round" stroke-linejoin="round"></path>
  <path d="M42.739 44.1304H30.2173" stroke="black" stroke-width="2" stroke-miterlimit="2" stroke-linecap="round" stroke-linejoin="round"></path>
  <path d="M13.5217 44.1304H1" stroke="black" stroke-width="2" stroke-miterlimit="2" stroke-linecap="round" stroke-linejoin="round"></path>
  <path d="M15.9703 50.0295L7.11328 58.888" stroke="black" stroke-width="2" stroke-miterlimit="2" stroke-linecap="round" stroke-linejoin="round"></path>
  <path fill-rule="evenodd" clip-rule="evenodd" d="M30.2174 44.1304C30.2174 45.2574 29.9948 46.3426 29.5913 47.3304C29.16 48.3461 28.5339 49.2643 27.7687 50.0295C27.0035 50.7948 26.0852 51.4209 25.0696 51.8522C24.0817 52.2556 22.9965 52.4782 21.8696 52.4782C20.7426 52.4782 19.6574 52.2556 18.6696 51.8522C17.6539 51.4209 16.7356 50.7948 15.9704 50.0295C15.2052 49.2643 14.5791 48.3461 14.1478 47.3304C13.7443 46.3426 13.5217 45.2574 13.5217 44.1304C13.5217 43.0035 13.7443 41.9182 14.1478 40.9304C14.5791 39.9148 15.2052 38.9965 15.9704 38.2313C16.7356 37.4661 17.6539 36.84 18.6696 36.4087C19.6574 36.0052 20.7426 35.7826 21.8696 35.7826C22.9965 35.7826 24.0817 36.0052 25.0696 36.4087C26.0852 36.84 27.0035 37.4661 27.7687 38.2313C28.5339 38.9965 29.16 39.9148 29.5913 40.9304C29.9948 41.9182 30.2174 43.0035 30.2174 44.1304Z" stroke="black" stroke-width="2" stroke-miterlimit="2" stroke-linecap="round" stroke-linejoin="round"></path>
</svg>
