<?xml version="1.0" encoding="UTF-8"?>
<svg xmlns="http://www.w3.org/2000/svg" width="77" height="65" viewBox="0 0 77 65" fill="none">
  <path d="M33.7554 19.4767H44.786C45.5505 19.4767 46.2787 19.6769 46.8612 20.0955L48.0261 20.8419C49.009 21.5335 49.6279 22.6985 49.6279 23.9363C49.6279 24.8646 49.1911 25.7201 48.4266 26.248L46.8612 27.2855C46.2787 27.6861 45.5505 27.8863 44.786 27.8863H33.7554" stroke="black" stroke-width="2" stroke-miterlimit="2" stroke-linecap="round" stroke-linejoin="round"></path>
  <path d="M7.61667 13.9068H26.3287L33.7554 19.4767V27.8863L26.3287 33.4562H7.61667L3.1024 28.8874C0.299201 26.0113 0.299201 21.3697 3.1024 18.4756L11.5483 9.88396" stroke="black" stroke-width="2" stroke-miterlimit="2" stroke-linecap="round" stroke-linejoin="round"></path>
  <path d="M26.3287 33.4562L19.8851 46.3981C19.4846 47.2355 18.5744 47.7633 17.6644 47.7633H12.5312C11.6939 47.7633 10.9295 47.381 10.4562 46.7077C10.0193 46.0705 9.91009 45.215 10.165 44.4505L14.0603 33.4562" stroke="black" stroke-width="2" stroke-miterlimit="2" stroke-linecap="round" stroke-linejoin="round"></path>
  <path d="M12.8589 64V47.7633" stroke="black" stroke-width="2" stroke-miterlimit="2" stroke-linecap="round" stroke-linejoin="round"></path>
  <path d="M16.5723 47.7633V64" stroke="black" stroke-width="2" stroke-miterlimit="2" stroke-linecap="round" stroke-linejoin="round"></path>
  <path d="M43.3298 19.4767V27.8863" stroke="black" stroke-width="2" stroke-miterlimit="2" stroke-linecap="round" stroke-linejoin="round"></path>
  <path d="M55.0522 17.9295C55.0522 18.603 54.5062 19.1673 53.8145 19.1673C53.1592 19.1673 52.613 18.603 52.613 17.9295C52.613 17.2378 53.1592 16.6917 53.8145 16.6917C54.5062 16.6917 55.0522 17.2378 55.0522 17.9295Z" fill="black"></path>
  <path d="M55.0522 29.4517C55.0522 28.76 54.5062 28.2139 53.8145 28.2139C53.1592 28.2139 52.613 28.76 52.613 29.4517C52.613 30.1252 53.1592 30.6894 53.8145 30.6894C54.5062 30.6894 55.0522 30.1252 55.0522 29.4517Z" fill="black"></path>
  <path d="M55.0522 23.6996C55.0522 23.0079 54.5062 22.4619 53.8145 22.4619C53.1592 22.4619 52.613 23.0079 52.613 23.6996C52.613 24.3549 53.1592 24.9192 53.8145 24.9192C54.5062 24.9192 55.0522 24.3549 55.0522 23.6996Z" fill="black"></path>
  <path d="M60.4767 23.6996C60.4767 23.0079 59.9306 22.4619 59.2025 22.4619C58.5472 22.4619 58.0012 23.0079 58.0012 23.6996C58.0012 24.3549 58.5472 24.9192 59.2025 24.9192C59.9306 24.9192 60.4767 24.3549 60.4767 23.6996Z" fill="black"></path>
  <path d="M60.4767 19.1673C60.4767 18.4756 59.9306 17.9295 59.2025 17.9295C58.5472 17.9295 58.0012 18.4756 58.0012 19.1673C58.0012 19.8408 58.5472 20.4051 59.2025 20.4051C59.9306 20.4051 60.4767 19.8408 60.4767 19.1673Z" fill="black"></path>
  <path d="M60.4767 28.2139C60.4767 28.8874 59.9306 29.4517 59.2025 29.4517C58.5472 29.4517 58.0012 28.8874 58.0012 28.2139C58.0012 27.5222 58.5472 26.9579 59.2025 26.9579C59.9306 26.9579 60.4767 27.5222 60.4767 28.2139Z" fill="black"></path>
  <path d="M65.8644 16.2184C65.8644 15.5449 65.3184 14.9807 64.6631 14.9807C63.935 14.9807 63.3889 15.5449 63.3889 16.2184C63.3889 16.9102 63.935 17.4562 64.6631 17.4562C65.3184 17.4562 65.8644 16.9102 65.8644 16.2184Z" fill="black"></path>
  <path d="M65.8644 31.1445C65.8644 31.8361 65.3184 32.3823 64.6631 32.3823C63.935 32.3823 63.3889 31.8361 63.3889 31.1445C63.3889 30.4528 63.935 29.9067 64.6631 29.9067C65.3184 29.9067 65.8644 30.4528 65.8644 31.1445Z" fill="black"></path>
  <path d="M71.289 13.2878C71.289 12.5961 70.7065 12.0501 70.0512 12.0501C69.396 12.0501 68.8135 12.5961 68.8135 13.2878C68.8135 13.9613 69.396 14.5256 70.0512 14.5256C70.7065 14.5256 71.289 13.9613 71.289 13.2878Z" fill="black"></path>
  <path d="M71.289 34.075C71.289 34.7668 70.7065 35.331 70.0512 35.331C69.396 35.331 68.8135 34.7668 68.8135 34.075C68.8135 33.4015 69.396 32.8374 70.0512 32.8374C70.7065 32.8374 71.289 33.4015 71.289 34.075Z" fill="black"></path>
  <path d="M76.7133 10.3391C76.7133 9.66557 76.1673 9.11945 75.4391 9.11945C74.7838 9.11945 74.2378 9.66557 74.2378 10.3391C74.2378 11.0307 74.7838 11.5769 75.4391 11.5769C76.1673 11.5769 76.7133 11.0307 76.7133 10.3391Z" fill="black"></path>
  <path d="M76.7133 37.0239C76.7133 37.7156 76.1673 38.2617 75.4391 38.2617C74.7838 38.2617 74.2378 37.7156 74.2378 37.0239C74.2378 36.3322 74.7838 35.7861 75.4391 35.7861C76.1673 35.7861 76.7133 36.3322 76.7133 37.0239Z" fill="black"></path>
  <path d="M65.8644 23.6996C65.8644 23.0079 65.3184 22.4619 64.6631 22.4619C63.935 22.4619 63.3889 23.0079 63.3889 23.6996C63.3889 24.3549 63.935 24.9192 64.6631 24.9192C65.3184 24.9192 65.8644 24.3549 65.8644 23.6996Z" fill="black"></path>
  <path d="M71.289 23.6996C71.289 23.0079 70.7065 22.4619 70.0512 22.4619C69.396 22.4619 68.8135 23.0079 68.8135 23.6996C68.8135 24.3549 69.396 24.9192 70.0512 24.9192C70.7065 24.9192 71.289 24.3549 71.289 23.6996Z" fill="black"></path>
  <path d="M76.7133 23.6996C76.7133 23.0079 76.1673 22.4619 75.4391 22.4619C74.7838 22.4619 74.2378 23.0079 74.2378 23.6996C74.2378 24.3549 74.7838 24.9192 75.4391 24.9192C76.1673 24.9192 76.7133 24.3549 76.7133 23.6996Z" fill="black"></path>
  <path d="M59.2025 13.7429C59.2025 14.4346 58.6564 14.9807 58.0012 14.9807C57.3095 14.9807 56.7271 14.4346 56.7271 13.7429C56.7271 13.0694 57.3095 12.5051 58.0012 12.5051C58.6564 12.5051 59.2025 13.0694 59.2025 13.7429Z" fill="black"></path>
  <path d="M59.2025 33.6201C59.2025 32.9466 58.6564 32.3823 58.0012 32.3823C57.3095 32.3823 56.7271 32.9466 56.7271 33.6201C56.7271 34.3117 57.3095 34.8577 58.0012 34.8577C58.6564 34.8577 59.2025 34.3117 59.2025 33.6201Z" fill="black"></path>
  <path d="M63.389 9.59273C63.389 10.2662 62.8429 10.8305 62.1877 10.8305C61.4596 10.8305 60.9136 10.2662 60.9136 9.59273C60.9136 8.90105 61.4596 8.35493 62.1877 8.35493C62.8429 8.35493 63.389 8.90105 63.389 9.59273Z" fill="black"></path>
  <path d="M63.389 37.7884C63.389 37.1149 62.8429 36.5688 62.1877 36.5688C61.4596 36.5688 60.9136 37.1149 60.9136 37.7884C60.9136 38.4619 61.4596 39.0261 62.1877 39.0261C62.8429 39.0261 63.389 38.4619 63.389 37.7884Z" fill="black"></path>
  <path d="M67.5756 5.40617C67.5756 6.09785 67.0295 6.64397 66.3378 6.64397C65.6461 6.64397 65.1001 6.09785 65.1001 5.40617C65.1001 4.73268 65.6461 4.16837 66.3378 4.16837C67.0295 4.16837 67.5756 4.73268 67.5756 5.40617Z" fill="black"></path>
  <path d="M67.5756 41.9567C67.5756 41.2833 67.0295 40.719 66.3378 40.719C65.6461 40.719 65.1001 41.2833 65.1001 41.9567C65.1001 42.6485 65.6461 43.1945 66.3378 43.1945C67.0295 43.1945 67.5756 42.6485 67.5756 41.9567Z" fill="black"></path>
  <path d="M71.7621 1.2378C71.7621 1.9113 71.1796 2.4756 70.5243 2.4756C69.8326 2.4756 69.2866 1.9113 69.2866 1.2378C69.2866 0.54612 69.8326 0 70.5243 0C71.1796 0 71.7621 0.54612 71.7621 1.2378Z" fill="black"></path>
  <path d="M71.7621 46.1434C71.7621 45.4516 71.1796 44.9056 70.5243 44.9056C69.8326 44.9056 69.2866 45.4516 69.2866 46.1434C69.2866 46.8169 69.8326 47.381 70.5243 47.381C71.1796 47.381 71.7621 46.8169 71.7621 46.1434Z" fill="black"></path>
</svg>
