<?xml version="1.0" encoding="UTF-8"?> <svg xmlns="http://www.w3.org/2000/svg" width="54" height="48" viewBox="0 0 54 48" fill="none"><path d="M8.12178 33.3217C7.90678 33.5367 7.62099 33.6552 7.31683 33.6552C7.0126 33.6552 6.72682 33.5367 6.51168 33.3217C6.06782 32.8775 6.06762 32.1551 6.51155 31.711C6.72655 31.496 7.01247 31.3777 7.31663 31.3777C7.62046 31.3777 7.90645 31.496 8.12132 31.7104L8.12178 31.711L8.12245 31.7115C8.56584 32.1556 8.56571 32.8778 8.12178 33.3217ZM9.40655 29.2178L8.63356 29.9906C8.23178 29.7805 7.78306 29.6683 7.31663 29.6683C6.55589 29.6683 5.84076 29.9645 5.30275 30.5024C4.19244 31.6131 4.19264 33.4199 5.30289 34.5302C5.84076 35.0683 6.55609 35.3646 7.31683 35.3646C8.07757 35.3646 8.7929 35.0683 9.33058 34.5302C10.2307 33.6303 10.4008 32.2733 9.84209 31.1998L10.6151 30.4268C10.949 30.0929 10.949 29.5518 10.6153 29.2181C10.2814 28.8841 9.74035 28.8843 9.40655 29.2178Z" fill="black"></path><path d="M16.5385 33.3217C16.3235 33.5367 16.0377 33.6552 15.7336 33.6552C15.4294 33.6552 15.1434 33.5367 14.9282 33.3217C14.4844 32.8775 14.4844 32.1551 14.9282 31.711C15.1433 31.496 15.4292 31.3777 15.7334 31.3777C16.0375 31.3777 16.3237 31.4961 16.5385 31.711C16.9826 32.1551 16.9826 32.8775 16.5385 33.3217ZM17.8233 29.2178L17.0503 29.9906C16.6485 29.7805 16.1998 29.6683 15.7334 29.6683C14.9726 29.6683 14.2575 29.9645 13.7196 30.5024C12.609 31.6129 12.609 33.4199 13.7196 34.5302C14.2575 35.0683 14.9728 35.3646 15.7336 35.3646C16.4943 35.3646 17.2096 35.0683 17.7475 34.5302C18.6471 33.6303 18.8172 32.2733 18.2588 31.1999L19.0319 30.4268C19.3658 30.0929 19.3658 29.5518 19.032 29.2181C18.6982 28.8841 18.1571 28.8843 17.8233 29.2178Z" fill="black"></path><path d="M24.9554 33.3216C24.7403 33.5366 24.4543 33.6552 24.1501 33.6552C23.846 33.6552 23.56 33.5366 23.345 33.3216C22.901 32.8774 22.901 32.1551 23.3448 31.7112C23.5598 31.4961 23.846 31.3776 24.1501 31.3776C24.4543 31.3776 24.7403 31.4961 24.9553 31.7109C25.3991 32.1551 25.3991 32.8774 24.9554 33.3216ZM26.2398 29.218L25.4671 29.9908C25.0653 29.7804 24.6164 29.6682 24.1501 29.6682C23.3894 29.6682 22.6741 29.9643 22.1362 30.5023C21.0258 31.6126 21.0258 33.4195 22.1362 34.5304C22.6743 35.0682 23.3896 35.3646 24.1501 35.3646C24.911 35.3646 25.6261 35.0682 26.1642 34.5301C27.0636 33.6302 27.2338 32.2733 26.6754 31.1997L27.4485 30.4266C27.7823 30.0928 27.7823 29.5517 27.4485 29.218C27.1149 28.884 26.5734 28.884 26.2398 29.218Z" fill="black"></path><path d="M38.2477 29.9866C37.7756 29.9866 37.393 30.3693 37.393 30.8414V33.4909C37.393 33.9631 37.7756 34.3457 38.2477 34.3457C38.7198 34.3457 39.1024 33.9631 39.1024 33.4909V30.8414C39.1024 30.3693 38.7198 29.9866 38.2477 29.9866Z" fill="black"></path><path d="M41.6666 29.9866C41.1945 29.9866 40.8118 30.3693 40.8118 30.8414V33.4909C40.8118 33.9631 41.1945 34.3457 41.6666 34.3457C42.1387 34.3457 42.5213 33.9631 42.5213 33.4909V30.8414C42.5213 30.3693 42.1387 29.9866 41.6666 29.9866Z" fill="black"></path><path d="M45.0851 34.3457C45.5572 34.3457 45.9401 33.9631 45.9401 33.4909V30.8414C45.9401 30.3693 45.5572 29.9866 45.0851 29.9866C44.613 29.9866 44.2308 30.3693 44.2308 30.8414V33.4909C44.2308 33.9631 44.613 34.3457 45.0851 34.3457Z" fill="black"></path><path d="M37.0354 25.2624V21.195C37.0354 20.5101 37.3022 19.8662 37.7863 19.3818L42.8581 14.3099C43.3425 13.8256 43.9864 13.5591 44.6716 13.5591C45.3561 13.5591 46 13.8256 46.4847 14.3099C47.4842 15.3097 47.4842 16.9366 46.4847 17.9364L42.4141 22.0069C42.2537 22.1671 42.1637 22.3845 42.1637 22.6111V25.2624H37.0354ZM51.5379 37.3603H1.70945V26.9718H51.5379V37.3603ZM51.5379 40.8401L50.2215 42.8496H3.02605L1.70945 40.8401V39.0697H51.5379V40.8401ZM47.2158 46.2901H38.5103V44.5589H47.2158V46.2901ZM14.7368 46.2901H6.03125V44.5589H14.7368V46.2901ZM12.1134 22.3472L10.0674 20.8374V19.725H29.2891V21.6389H19.6782C19.2061 21.6389 18.8235 22.0216 18.8235 22.4936C18.8235 22.9657 19.2061 23.3483 19.6782 23.3483H29.2891V25.2624H12.4606V23.035C12.4606 22.7635 12.3317 22.5083 12.1134 22.3472ZM39.6496 11.8149H30.9985V6.98842C30.9985 6.51633 30.6159 6.13373 30.1438 6.13373H9.42272C8.95063 6.13373 8.56803 6.51633 8.56803 6.98842V11.8149H1.75187V6.85985L6.90213 1.70938H15.5103V3.05774C15.5103 3.5299 15.893 3.9125 16.3651 3.9125C16.8372 3.9125 17.2198 3.5299 17.2198 3.05774V1.70938H18.9292V3.05774C18.9292 3.5299 19.3118 3.9125 19.7839 3.9125C20.256 3.9125 20.6386 3.5299 20.6386 3.05774V1.70938H22.348V3.05774C22.348 3.5299 22.7306 3.9125 23.2028 3.9125C23.6749 3.9125 24.0575 3.5299 24.0575 3.05774V1.70938H46.4088L51.5592 6.85985V17.3557L48.5589 20.356H46.4827L47.6932 19.145C49.3592 17.4788 49.3592 14.7675 47.6932 13.1013C46.8862 12.294 45.8129 11.8496 44.6716 11.8496C43.5296 11.8496 42.4567 12.294 41.6495 13.1013L40.5044 14.2465V12.6696C40.5044 12.1975 40.1217 11.8149 39.6496 11.8149ZM29.2891 9.83489H10.2774V7.84318H29.2891V9.83489ZM44.7728 22.0655H48.9124C49.1395 22.0655 49.3566 21.9754 49.517 21.815L53.0181 18.314C53.1786 18.1538 53.2685 17.9364 53.2685 17.7098V6.50581C53.2685 6.27915 53.1786 6.06175 53.0181 5.90155L47.367 0.250429C47.2065 0.0899582 46.9894 0 46.7624 0H6.54809C6.32137 0 6.10403 0.0899582 5.94376 0.250429L0.292777 5.90155C0.132372 6.06175 0.0424146 6.27915 0.0424146 6.50581V12.6696C0.0424146 13.1417 0.425015 13.5243 0.897107 13.5243H9.42272C9.89481 13.5243 10.2774 13.1417 10.2774 12.6696V11.5443H29.2891V12.6696C29.2891 13.1417 29.6717 13.5243 30.1438 13.5243H38.7949V15.9559L36.5775 18.1732C35.7706 18.9805 35.326 20.0537 35.326 21.195V25.2624H30.9985V18.8703C30.9985 18.3982 30.6159 18.0155 30.1438 18.0155H9.21265C8.74062 18.0155 8.35795 18.3982 8.35795 18.8703V21.269C8.35795 21.5404 8.48686 21.7957 8.7052 21.9568L10.7512 23.4666V25.2624H0.854692C0.382601 25.2624 0 25.645 0 26.1171V41.0951C0 41.2615 0.0485408 41.424 0.139763 41.5632L1.84915 44.1727C2.00709 44.4137 2.27603 44.5589 2.56414 44.5589H4.3218V47.145C4.3218 47.6171 4.7044 48 5.1765 48H15.5915C16.0636 48 16.4462 47.6171 16.4462 47.145V44.5589H36.8009V47.145C36.8009 47.6171 37.1835 48 37.6555 48H48.0708C48.5429 48 48.9251 47.6171 48.9251 47.145V44.5589H50.6829C50.9713 44.5589 51.2403 44.4137 51.3981 44.1727L53.1073 41.5632C53.1985 41.424 53.2471 41.2615 53.2471 41.0951V26.1171C53.2471 25.645 52.8649 25.2624 52.3922 25.2624H43.8732V22.9652L44.7728 22.0655Z" fill="black"></path><path d="M40.8841 6.98494C40.8841 6.51292 40.5015 6.13025 40.0294 6.13025H35.0132C34.5411 6.13025 34.1585 6.51292 34.1585 6.98494C34.1585 7.45703 34.5411 7.8397 35.0132 7.8397H40.0294C40.5015 7.8397 40.8841 7.45703 40.8841 6.98494Z" fill="black"></path></svg> 