<?xml version="1.0" encoding="UTF-8" standalone="no"?>
<!-- Created with Inkscape (http://www.inkscape.org/) -->

<svg
   width="207.51613mm"
   height="17.94309mm"
   viewBox="0 0 207.51613 17.943091"
   version="1.1"
   id="svg5"
   xmlns:inkscape="http://www.inkscape.org/namespaces/inkscape"
   xmlns:sodipodi="http://sodipodi.sourceforge.net/DTD/sodipodi-0.dtd"
   xmlns="http://www.w3.org/2000/svg"
   xmlns:svg="http://www.w3.org/2000/svg">
  <sodipodi:namedview
     id="namedview7"
     pagecolor="#ffffff"
     bordercolor="#000000"
     borderopacity="0.25"
     inkscape:showpageshadow="2"
     inkscape:pageopacity="0.0"
     inkscape:pagecheckerboard="0"
     inkscape:deskcolor="#d1d1d1"
     inkscape:document-units="mm"
     showgrid="false" />
  <defs
     id="defs2" />
  <g
     inkscape:label="Réteg 1"
     inkscape:groupmode="layer"
     id="layer1"
     transform="translate(0,-48.080645)">
    <path
       style="fill:none;stroke:#000000;stroke-width:0.263962"
       d="m -0.2507968,49.930716 c 7.0215143,-0.675255 14.2878878,-2.250754 21.2524038,0.223497 5.298245,1.151492 9.872684,3.892918 14.458522,6.551179 6.787182,5.024517 14.926053,7.526268 23.224587,8.531076 8.0853,0.601279 16.451163,0.07248 23.973769,-3.010969 6.493942,-3.036294 11.847299,-8.292565 18.723225,-10.804733 6.88503,-2.935471 14.72341,-2.924903 21.96606,-1.437133 6.15993,1.713196 10.74061,6.338365 16.30228,8.687523 6.32475,3.80258 13.77871,4.653728 21.09543,5.381079 7.47923,0.234947 14.94544,-0.0843 22.05343,-2.579478 7.3522,-1.126583 16.09779,-5.374644 21.8511,-6.900133 2.63476,-1.021303 4.703,-0.971709 7.11721,-2.383683 -0.5827,0.08364 -1.1654,0.167277 -1.74809,0.250915"
       id="path440" />
  </g>
</svg>
